{"title":"Ninja (2009) 1080p BDRip MP4 AC3 - {inyd}","uid":9503601,"size":6695322270,"categoryP":"video","categoryS":"hd___movies","magnet":"?xt=urn:btih:25ffa920299f874a15c5c8a9f4cd0d211069af58&amp;dn=Ninja+%282009%29+1080p+BDRip+MP4+AC3+-+%7Binyd%7D&amp;tr=udp%3A%2F%2Ftracker.openbittorrent.com%3A80&amp;tr=udp%3A%2F%2Fopen.demonii.com%3A1337&amp;tr=udp%3A%2F%2Ftracker.coppersurfer.tk%3A6969&amp;tr=udp%3A%2F%2Fexodus.desync.com%3A6969","seeders":1,"leechers":1,"uploader":"imPROvise","files":-1,"time":1390272642,"description":"General\nName                                     : Ninja (2009)\nFormat                                   : MPEG-4\nFormat profile                           : Base Media\nCodec ID                                 : isom\nFile size                                : 6.24 GiB\nDuration                                 : 1h 26mn\nOverall bit rate mode                    : Constant\nOverall bit rate                         : 10.3 Mbps\nWriting application                      : Lavf54.59.106\n\nVideo\nID                                       : 1\nFormat                                   : MPEG-4 Visual\nFormat profile                           : Simple@L1\nFormat settings, BVOP                    : No\nFormat settings, QPel                    : No\nFormat settings, GMC                     : No warppoints\nFormat settings, Matrix                  : Default (H.263)\nCodec ID                                 : 20\nDuration                                 : 1h 26mn\nBit rate mode                            : Constant\nBit rate                                 : 9 972 Kbps\nWidth                                    : 1 920 pixels\nHeight                                   : 1 080 pixels\nDisplay aspect ratio                     : 16:9\nFrame rate mode                          : Constant\nFrame rate                               : 29.970 fps\nColor space                              : YUV\nChroma subsampling                       : 4:2:0\nBit depth                                : 8 bits\nScan type                                : Progressive\nCompression mode                         : Lossy\nBits/(Pixel*Frame)                       : 0.160\nStream size                              : 6.04 GiB (97%)\nWriting library                          : Lavc54.86.100\n\nAudio\nID                                       : 2\nFormat                                   : AC-3\nFormat/Info                              : Audio Coding 3\nMode extension                           : CM (complete main)\nFormat settings, Endianness              : Big\nCodec ID                                 : ac-3\nDuration                                 : 1h 26mn\nBit rate mode                            : Constant\nBit rate                                 : 320 Kbps\nChannel(s)                               : 6 channels\nChannel positions                        : Front: L C R, Side: L R, LFE\nSampling rate                            : 44.1 KHz\nBit depth                                : 16 bits\nCompression mode                         : Lossy\nStream size                              : 198 MiB (3%)\n\nSubs                                     : Hard coded English for non English parts only\n\nScreens: &lt;a href=&quot;\nhttp://postimg.org/image/6sepygv3t/&quot; rel=&quot;nofollow&quot; target=&quot;_NEW&quot;&gt;\nhttp://postimg.org/image/6sepygv3t/&lt;/a&gt; &lt;a href=&quot;\nhttp://postimg.org/image/z0l9fzssp/&quot; rel=&quot;nofollow&quot; target=&quot;_NEW&quot;&gt;\nhttp://postimg.org/image/z0l9fzssp/&lt;/a&gt; &lt;a href=&quot;\nhttp://postimg.org/image/lt2d190cj/&quot; rel=&quot;nofollow&quot; target=&quot;_NEW&quot;&gt;\nhttp://postimg.org/image/lt2d190cj/&lt;/a&gt; &lt;a href=&quot;\nhttp://postimg.org/image/4fzty9gfj/&quot; rel=&quot;nofollow&quot; target=&quot;_NEW&quot;&gt;\nhttp://postimg.org/image/4fzty9gfj/&lt;/a&gt; &lt;a href=&quot;\nhttp://postimg.org/image/7isaolkhv/&quot; rel=&quot;nofollow&quot; target=&quot;_NEW&quot;&gt;\nhttp://postimg.org/image/7isaolkhv/&lt;/a&gt;\n\nEnjoy and Please help seed as much as possible for others!!! - inotyourdaddy {inyd}\n\nJoin me on SuprBay: The PirateBay Forum - Report any fake torrents, torrents with passwords, malware, viruses, or spam comments. Have any site issues that need attended to ask on the forum. Request for any video, music, software, or other can be made on the forum. Don't forget to hit my rep. button :) -   &lt;a href=&quot; https://forum.suprbay.org/member.php?action=register&amp;referrer=251&quot; rel=&quot;nofollow&quot; target=&quot;_NEW&quot;&gt; https://forum.suprbay.org/member.php?action=register&amp;referrer=251&lt;/a&gt;\n","torrent":{"xt":"urn:btih:25ffa920299f874a15c5c8a9f4cd0d211069af58","amp;dn":"Ninja+%282009%29+1080p+BDRip+MP4+AC3+-+%7Binyd%7D","amp;tr":["udp%3A%2F%2Ftracker.openbittorrent.com%3A80","udp%3A%2F%2Fopen.demonii.com%3A1337","udp%3A%2F%2Ftracker.coppersurfer.tk%3A6969","udp%3A%2F%2Fexodus.desync.com%3A6969"],"infoHash":"25ffa920299f874a15c5c8a9f4cd0d211069af58","infoHashBuffer":{"type":"Buffer","data":[37,255,169,32,41,159,135,74,21,197,200,169,244,205,13,33,16,105,175,88]},"announce":[],"urlList":[]}}